<svg width="18" height="16" viewBox="0 0 18 16" fill="none" xmlns="http://www.w3.org/2000/svg">
<path d="M9 0.5C7.62549 0.5 6.5 1.62549 6.5 3C6.5 3.64697 6.75635 4.23291 7.16406 4.67969C6.91016 4.8042 6.68555 4.95801 6.46094 5.12891C6.28027 3.92773 5.24756 3 4 3C2.62549 3 1.5 4.12549 1.5 5.5C1.5 6.1665 1.771 6.76953 2.20312 7.21875C2.04199 7.30664 1.88086 7.40186 1.73438 7.51172C0.833496 8.19531 0.25 9.28418 0.25 10.5H1.5C1.5 9.68213 1.89307 8.96436 2.49609 8.50781C2.91602 8.19043 3.43115 8 4 8C4.38818 8 4.75195 8.10498 5.09375 8.27344L5.77734 8.60547L5.97266 7.86328C6.31445 6.51074 7.53271 5.5 9 5.5C10.4648 5.5 11.6831 6.49365 12.0273 7.84375L12.2227 8.60547L12.9062 8.25391C13.2432 8.08789 13.6094 8 14 8C15.3867 8 16.5 9.11328 16.5 10.5H17.75C17.75 9.09131 16.9541 7.8584 15.7969 7.21875C16.229 6.76953 16.5 6.1665 16.5 5.5C16.5 4.12549 15.3745 3 14 3C12.7524 3 11.7197 3.92773 11.5391 5.12891C11.3145 4.95801 11.0898 4.8042 10.8359 4.67969C11.2437 4.23291 11.5 3.64697 11.5 3C11.5 1.62549 10.3745 0.5 9 0.5ZM9 1.75C9.69824 1.75 10.25 2.30176 10.25 3C10.25 3.69824 9.69824 4.25 9 4.25C8.30176 4.25 7.75 3.69824 7.75 3C7.75 2.30176 8.30176 1.75 9 1.75ZM4 4.25C4.69824 4.25 5.25 4.80176 5.25 5.5C5.25 6.19824 4.69824 6.75 4 6.75C3.30176 6.75 2.75 6.19824 2.75 5.5C2.75 4.80176 3.30176 4.25 4 4.25ZM14 4.25C14.6982 4.25 15.25 4.80176 15.25 5.5C15.25 6.19824 14.6982 6.75 14 6.75C13.3018 6.75 12.75 6.19824 12.75 5.5C12.75 4.80176 13.3018 4.25 14 4.25ZM9 8C7.62549 8 6.5 9.12549 6.5 10.5C6.5 11.1665 6.771 11.7695 7.20312 12.2188C6.0459 12.8584 5.25 14.0913 5.25 15.5H6.5C6.5 14.1133 7.61328 13 9 13C10.3867 13 11.5 14.1133 11.5 15.5H12.75C12.75 14.0913 11.9541 12.8584 10.7969 12.2188C11.229 11.7695 11.5 11.1665 11.5 10.5C11.5 9.12549 10.3745 8 9 8ZM9 9.25C9.69824 9.25 10.25 9.80176 10.25 10.5C10.25 11.1982 9.69824 11.75 9 11.75C8.30176 11.75 7.75 11.1982 7.75 10.5C7.75 9.80176 8.30176 9.25 9 9.25Z" fill="#109CF1"/>
</svg>
